<svg id="_ÎÓÈ_1" data-name="—ÎÓÈ_1" xmlns="http://www.w3.org/2000/svg" viewBox="0 0 50 50"><defs><style>.cls-1{fill:#fff;}</style></defs><path class="cls-1" d="M38.61,26.66a3.38,3.38,0,0,0-4-2.88V23.1c0-1.42-1.27-2.42-3.07-2.42a4.09,4.09,0,0,0-1.12.15v0c0-1.43-1.33-2.42-3.24-2.42a4.4,4.4,0,0,0-1.28.18V12.23a3.2,3.2,0,0,0-3.32-3.32,3.21,3.21,0,0,0-3.32,3.32V27.32a17.16,17.16,0,0,0-3-3.51c-1.53-1.54-3.07-1.28-4-.53A3.88,3.88,0,0,0,11.49,28l.11.15a34.13,34.13,0,0,1,5,8.94c.13.35.27.7.4,1l0,.06c.92,2.37,1.86,3.92,2.17,6.54.05.44,0,1.83,0,2.34h0c0,.23,0,.46,0,.69a1,1,0,0,0,.29.72,1,1,0,0,0,.69.3l14.69,0a1,1,0,0,0,1-1h0a1.11,1.11,0,0,0,0-.19c0-.15,0-1.51,0-2.94a6.56,6.56,0,0,1,1-2.67c.65-1.21,1.39-1.68,1.61-3.33a4.3,4.3,0,0,1,.08-.44C38.79,36.87,39.4,33.48,38.61,26.66Zm-2,11.14h0a5.78,5.78,0,0,0-.1.57c-.17,1.27-.79,1.52-1.38,2.62a8,8,0,0,0-1.27,3.65v2a.19.19,0,0,1,0,.13.17.17,0,0,1-.13.05l-12.33,0a.14.14,0,0,1-.12-.06.15.15,0,0,1,0-.13c0-.53,0-1.65-.05-2.08-.34-2.88-1.34-4.55-2.3-7l0,0c-.13-.34-.27-.69-.4-1a35.6,35.6,0,0,0-5.29-9.45,1.77,1.77,0,0,1,.33-2.06c.48-.39,1,0,1.45.4a.12.12,0,0,0,.05,0,19.54,19.54,0,0,1,3.88,4.94,1.27,1.27,0,0,0,1.51.52,1.37,1.37,0,0,0,.89-1.29l0-17.27a1.37,1.37,0,0,1,2.74,0V24.44a1,1,0,1,0,2,0V20.79c0-.1.47-.4,1.29-.4s1.28.3,1.28.39V27a1,1,0,1,0,1.95,0V23.11c0-.14.44-.4,1.12-.4a1.41,1.41,0,0,1,1.12.34V28.9c0,.82.44,1.28,1,1.28a1,1,0,0,0,1-1V25.91a1.25,1.25,0,0,1,1-.13,1.34,1.34,0,0,1,1.08,1.12C37.43,33.4,36.86,36.56,36.62,37.8Z"/><path class="cls-1" d="M27.44,15.51a.88.88,0,0,0,.44.12.92.92,0,0,0,.8-.47,7.09,7.09,0,0,0,.9-3.49A7.18,7.18,0,0,0,25,5a.91.91,0,1,0-.66,1.7,5.31,5.31,0,0,1,2.73,7.56A.91.91,0,0,0,27.44,15.51Z"/><path class="cls-1" d="M24.47,3A8.92,8.92,0,0,1,29.74,16.8.91.91,0,0,0,30,18.07a.9.9,0,0,0,1.27-.22A10.75,10.75,0,0,0,24.88,1.21a.92.92,0,0,0-1.1.68A.92.92,0,0,0,24.47,3Z"/><path class="cls-1" d="M20.51,6.72A.93.93,0,0,0,21,5.53.91.91,0,0,0,19.85,5,7.14,7.14,0,0,0,16.2,15.18a.92.92,0,0,0,.8.46,1,1,0,0,0,.44-.11.92.92,0,0,0,.35-1.25,5.32,5.32,0,0,1,2.72-7.56Z"/><path class="cls-1" d="M14.39,18.25a.94.94,0,0,0,.53-.16.92.92,0,0,0,.22-1.28A8.92,8.92,0,0,1,20.38,3,.91.91,0,0,0,20,1.21a10.76,10.76,0,0,0-6.32,16.66A.91.91,0,0,0,14.39,18.25Z"/></svg>